<mxfile host="app.diagrams.net" modified="2023-01-13T01:08:25.278Z" agent="5.0 (Windows NT 10.0; Win64; x64) AppleWebKit/537.36 (KHTML, like Gecko) Chrome/108.0.0.0 Safari/537.36" etag="H4EQ8wdUa80nlpINhWwo" version="20.2.3" type="github">
  <diagram id="DLpZk2T1wcTGQFT5xEEi" name="第 1 页">
    <mxGraphModel dx="1358" dy="808" grid="1" gridSize="10" guides="1" tooltips="1" connect="1" arrows="1" fold="1" page="1" pageScale="1" pageWidth="827" pageHeight="1169" math="0" shadow="0">
      <root>
        <mxCell id="0" />
        <mxCell id="1" parent="0" />
      </root>
    </mxGraphModel>
  </diagram>
</mxfile>
